<svg xmlns="http://www.w3.org/2000/svg" version="1.1" viewBox="144.43 101.77 188.57 74.28">
<path fill="#000000" d="   M 186.13 103.22   C 195.33 107.15 201.16 116.62 200.10 126.08   Q 199.49 131.47 194.52 140.09   Q 187.46 152.33 178.73 163.47   Q 176.55 166.24 174.55 163.70   C 166.90 153.98 158.53 142.43 154.35 130.72   C 150.15 118.94 157.42 107.31 168.21 102.92   C 172.43 101.21 182.10 101.50 186.13 103.22   Z   M 171.3805 118.3594   A 3.98 3.42 91.0 0 0 174.8695 114.4397   A 3.98 3.42 91.0 0 0 171.5195 110.4006   A 3.98 3.42 91.0 0 0 168.0305 114.3203   A 3.98 3.42 91.0 0 0 171.3805 118.3594   Z   M 181.7686 118.3849   A 3.98 3.28 92.9 0 0 185.2458 114.5759   A 3.98 3.28 92.9 0 0 182.1714 110.4351   A 3.98 3.28 92.9 0 0 178.6942 114.2441   A 3.98 3.28 92.9 0 0 181.7686 118.3849   Z   M 164.4676 126.8699   A 3.96 3.33 89.6 0 0 167.7699 122.8868   A 3.96 3.33 89.6 0 0 164.4124 118.9501   A 3.96 3.33 89.6 0 0 161.1101 122.9332   A 3.96 3.33 89.6 0 0 164.4676 126.8699   Z   M 188.9365 126.8000   A 3.87 3.31 90.2 0 0 192.2600 122.9416   A 3.87 3.31 90.2 0 0 188.9635 119.0600   A 3.87 3.31 90.2 0 0 185.6400 122.9184   A 3.87 3.31 90.2 0 0 188.9365 126.8000   Z   M 178.98 126.21   C 173.88 123.92 166.03 131.90 169.28 136.46   C 172.17 140.52 179.23 141.32 182.88 137.51   C 186.68 133.56 182.92 127.99 178.98 126.21   Z"/>
<path fill="#000000" d="   M 240.73 104.18   C 248.71 105.26 253.69 113.51 252.85 121.28   C 251.70 131.88 244.99 136.59 234.89 136.71   Q 232.73 136.74 230.58 137.11   A 1.00 0.99 -4.8 0 0 229.75 138.09   L 229.75 152.50   A 1.00 1.00 0.0 0 1 228.75 153.50   L 217.25 153.50   A 1.00 1.00 0.0 0 1 216.25 152.50   L 216.25 104.63   A 1.00 1.00 0.0 0 1 217.20 103.63   Q 231.16 102.88 240.73 104.18   Z   M 236.29 115.09   L 231.29 114.67   A 1.00 0.99 2.4 0 0 230.21 115.66   L 230.19 124.85   A 0.99 0.99 0.0 0 0 231.12 125.85   Q 238.01 126.33 238.78 119.55   Q 239.26 115.34 236.29 115.09   Z"/>
<path fill="#000000" d="   M 274.72 122.24   L 288.68 122.22   A 0.57 0.57 0.0 0 1 289.25 122.79   L 289.25 132.68   A 0.57 0.57 0.0 0 1 288.68 133.25   L 274.92 133.25   A 0.57 0.57 0.0 0 0 274.35 133.77   L 273.70 141.66   A 0.57 0.57 0.0 0 0 274.27 142.28   L 289.16 142.23   A 0.57 0.57 0.0 0 1 289.73 142.80   L 289.79 152.93   A 0.57 0.57 0.0 0 1 289.22 153.50   L 261.08 153.50   A 0.57 0.57 0.0 0 1 260.51 152.93   L 260.48 104.07   A 0.57 0.57 0.0 0 1 261.05 103.50   L 289.75 103.50   A 0.57 0.57 0.0 0 1 290.32 104.06   L 290.57 113.92   A 0.57 0.57 0.0 0 1 290.00 114.50   L 274.86 114.50   A 0.57 0.57 0.0 0 0 274.29 115.06   L 274.15 121.66   A 0.57 0.57 0.0 0 0 274.72 122.24   Z"/>
<path fill="#000000" d="   M 306.73 115.01   L 295.52 114.76   A 0.53 0.53 0.0 0 1 295.00 114.23   L 295.00 104.03   A 0.53 0.53 0.0 0 1 295.53 103.50   L 332.47 103.50   A 0.53 0.53 0.0 0 1 333.00 104.03   L 333.00 114.50   A 0.53 0.53 0.0 0 1 332.46 115.03   L 321.71 114.92   A 0.53 0.53 0.0 0 0 321.17 115.44   L 320.67 152.98   A 0.53 0.53 0.0 0 1 320.14 153.50   L 307.78 153.49   A 0.53 0.53 0.0 0 1 307.25 152.96   L 307.25 115.54   A 0.53 0.53 0.0 0 0 306.73 115.01   Z"/>
<path fill="#000000" d="   M 191.67 151.63   C 198.46 152.65 213.58 158.58 207.25 167.10   C 203.84 171.69 195.55 174.04 189.76 174.98   Q 171.42 177.98 153.73 172.58   C 149.95 171.43 143.27 166.79 144.60 161.71   C 146.16 155.75 156.02 152.38 161.34 151.65   A 1.01 1.01 0.0 0 1 162.30 152.07   C 164.96 155.95 170.25 164.97 174.29 166.86   C 180.35 169.70 186.62 158.14 190.69 152.06   A 0.99 0.99 0.0 0 1 191.67 151.63   Z"/>
<path fill="#000000" d="   M 225.79 168.06   C 226.68 168.13 228.56 159.82 229.15 157.26   A 1.00 1.00 0.0 0 1 230.14 156.48   L 234.52 156.55   A 1.00 1.00 0.0 0 1 235.50 157.55   L 235.50 172.50   A 1.00 1.00 0.0 0 1 234.50 173.50   L 232.42 173.50   A 1.01 1.00 -89.7 0 1 231.42 172.48   L 231.60 162.81   Q 231.62 161.92 230.84 162.36   Q 230.25 162.69 230.51 163.65   A 0.95 0.95 0.0 0 1 230.51 164.19   L 228.15 172.77   A 1.00 0.99 7.6 0 1 227.19 173.50   L 224.36 173.50   A 1.00 1.00 0.0 0 1 223.39 172.74   L 220.78 162.29   Q 220.68 161.89 220.42 162.20   C 220.00 162.70 220.25 171.22 220.24 172.51   A 1.00 1.00 0.0 0 1 219.24 173.50   L 217.40 173.50   A 1.01 1.00 -0.3 0 1 216.39 172.51   L 216.25 157.28   A 1.01 1.00 1.6 0 1 217.32 156.27   L 221.59 156.55   A 1.00 1.00 0.0 0 1 222.48 157.28   L 225.42 167.76   A 0.42 0.41 84.0 0 0 225.79 168.06   Z"/>
<path fill="#000000" d="   M 269.75 168.25   L 270.00 168.25   A 0.24 0.16 88.4 0 0 270.16 168.00   L 269.87 157.44   A 1.01 1.00 -13.4 0 1 270.45 156.50   Q 271.98 155.80 273.28 156.60   A 1.00 0.99 -74.4 0 1 273.75 157.45   L 273.75 172.55   A 0.99 0.99 0.0 0 1 272.78 173.54   L 268.71 173.66   A 1.00 0.99 -14.9 0 1 267.80 173.14   C 267.11 171.88 262.22 161.81 261.75 161.79   A 0.21 0.21 0.0 0 0 261.53 162.01   L 261.98 172.39   A 1.00 1.00 0.0 0 1 261.02 173.43   L 258.90 173.51   A 1.00 0.99 -0.8 0 1 257.86 172.51   L 257.89 157.44   A 1.01 1.01 0.0 0 1 258.91 156.44   L 262.93 156.50   A 1.01 1.01 0.0 0 1 263.81 157.04   L 269.36 167.69   A 0.73 0.10 63.2 0 0 269.75 168.25   Z"/>
<rect fill="#000000" x="-2.23" y="-8.59" transform="translate(279.73,164.93) rotate(-0.3)" width="4.46" height="17.18" rx="0.83"/>
<path fill="#000000" d="   M 322.86 168.39   Q 322.55 169.98 322.95 172.46   A 1.00 1.00 0.0 0 1 322.00 173.61   L 319.53 173.70   A 1.00 1.00 0.0 0 1 318.49 172.70   L 318.51 157.29   A 0.99 0.99 0.0 0 1 319.60 156.30   Q 321.73 156.51 323.90 156.59   Q 326.83 156.70 328.42 157.71   Q 333.25 160.79 328.56 166.00   A 1.01 1.00 48.8 0 0 328.48 167.25   L 331.98 172.18   Q 333.11 173.78 331.15 173.75   L 328.40 173.72   A 0.98 0.98 0.0 0 1 327.54 173.21   L 324.72 168.10   Q 323.39 165.68 322.86 168.39   Z   M 323.34 163.62   A 1.01 1.00 -29.8 0 0 324.85 164.03   C 329.76 160.46 320.69 157.49 323.34 163.62   Z"/>
<path fill="#000000" d="   M 246.9931 173.9651   A 8.84 8.20 88.1 0 1 238.5045 165.4019   A 8.84 8.20 88.1 0 1 246.4069 156.2949   A 8.84 8.20 88.1 0 1 254.8955 164.8581   A 8.84 8.20 88.1 0 1 246.9931 173.9651   Z   M 246.7409 170.1895   A 5.08 3.52 89.2 0 0 250.1897 165.0609   A 5.08 3.52 89.2 0 0 246.5991 160.0305   A 5.08 3.52 89.2 0 0 243.1503 165.1591   A 5.08 3.52 89.2 0 0 246.7409 170.1895   Z"/>
<path fill="#000000" d="   M 292.98 161.09   L 293.08 173.06   A 0.61 0.61 0.0 0 1 292.49 173.67   L 289.21 173.78   A 0.61 0.61 0.0 0 1 288.58 173.17   L 288.57 161.11   A 0.61 0.61 0.0 0 0 287.96 160.50   L 285.11 160.50   A 0.61 0.61 0.0 0 1 284.50 159.89   L 284.50 157.11   A 0.61 0.61 0.0 0 1 285.11 156.50   L 296.54 156.50   A 0.61 0.61 0.0 0 1 297.15 157.14   L 297.04 160.03   A 0.61 0.61 0.0 0 1 296.40 160.61   L 293.62 160.47   A 0.61 0.61 0.0 0 0 292.98 161.09   Z"/>
<path fill="#000000" d="   M 307.2555 173.9700   A 8.86 8.22 89.9 0 1 299.0200 165.1243   A 8.86 8.22 89.9 0 1 307.2245 156.2500   A 8.86 8.22 89.9 0 1 315.4600 165.0957   A 8.86 8.22 89.9 0 1 307.2555 173.9700   Z   M 307.2763 170.1599   A 5.02 3.58 89.7 0 0 310.8300 165.1213   A 5.02 3.58 89.7 0 0 307.2237 160.1201   A 5.02 3.58 89.7 0 0 303.6700 165.1587   A 5.02 3.58 89.7 0 0 307.2763 170.1599   Z"/>
</svg>